<?xml version="1.0" standalone="no"?>
<!DOCTYPE svg PUBLIC "-//W3C//DTD SVG 20010904//EN"
 "http://www.w3.org/TR/2001/REC-SVG-20010904/DTD/svg10.dtd">
<svg version="1.0" xmlns="http://www.w3.org/2000/svg"
 width="351.000000pt" height="351.000000pt" viewBox="0 0 351.000000 351.000000"
 preserveAspectRatio="xMidYMid meet">
<metadata>
Created by potrace 1.11, written by Peter Selinger 2001-2013
</metadata>
<g transform="translate(0.000000,351.000000) scale(0.100000,-0.100000)"
fill="#000000" stroke="none">
<path d="M2520 2559 c-116 -8 -172 -35 -202 -94 -22 -43 -16 -73 20 -102 40
-31 41 -57 6 -164 -35 -105 -54 -117 -103 -62 -20 22 -47 55 -61 73 -14 18
-30 38 -35 44 -6 6 -35 43 -65 81 -30 39 -59 75 -65 81 -5 6 -26 31 -45 56
-63 83 -79 89 -225 87 -134 -1 -180 -9 -230 -36 -42 -24 -62 -44 -74 -76 -16
-42 -15 -47 29 -87 23 -21 42 -47 45 -58 9 -48 -59 -287 -140 -497 -65 -168
-68 -172 -148 -219 -48 -28 -77 -71 -77 -114 0 -53 102 -91 231 -87 139 4 242
44 275 106 22 43 17 67 -20 104 -41 40 -40 53 5 188 45 138 72 164 118 115 19
-21 260 -329 314 -402 42 -56 107 -116 126 -116 59 0 117 52 161 145 17 36 78
203 136 372 129 380 148 423 206 449 95 42 140 114 105 168 -20 30 -55 42
-132 45 -33 2 -62 4 -65 5 -3 1 -43 -1 -90 -5z"/>
</g>
</svg>
